<?xml version="1.0" encoding="UTF-8" standalone="no"?>
<svg
   xmlns:dc="http://purl.org/dc/elements/1.1/"
   xmlns:cc="http://creativecommons.org/ns#"
   xmlns:rdf="http://www.w3.org/1999/02/22-rdf-syntax-ns#"
   xmlns:svg="http://www.w3.org/2000/svg"
   xmlns="http://www.w3.org/2000/svg"
   xmlns:sodipodi="http://sodipodi.sourceforge.net/DTD/sodipodi-0.dtd"
   xmlns:inkscape="http://www.inkscape.org/namespaces/inkscape"
   width="13cm"
   height="8cm"
   viewBox="14 311 260 142"
   id="svg2"
   version="1.1"
   inkscape:version="0.91 r13725"
   sodipodi:docname="VM-network.0b.svg">
  <metadata
     id="metadata382">
    <rdf:RDF>
      <cc:Work
         rdf:about="">
        <dc:format>image/svg+xml</dc:format>
        <dc:type
           rdf:resource="http://purl.org/dc/dcmitype/StillImage" />
        <dc:title />
      </cc:Work>
    </rdf:RDF>
  </metadata>
  <defs
     id="defs380">
    <clipPath
       id="clipPath18"
       clipPathUnits="userSpaceOnUse">
      <path
         inkscape:connector-curvature="0"
         id="path20"
         d="m 0,1.79688 370,0 0,250 -370,0 0,-250 z" />
    </clipPath>
  </defs>
  <sodipodi:namedview
     pagecolor="#ffffff"
     bordercolor="#666666"
     borderopacity="1"
     objecttolerance="10"
     gridtolerance="10"
     guidetolerance="10"
     inkscape:pageopacity="0"
     inkscape:pageshadow="2"
     inkscape:window-width="1407"
     inkscape:window-height="900"
     id="namedview378"
     showgrid="false"
     inkscape:zoom="1.1774114"
     inkscape:cx="255.12801"
     inkscape:cy="141.73228"
     inkscape:window-x="0"
     inkscape:window-y="0"
     inkscape:window-maximized="0"
     inkscape:current-layer="svg2" />
  <g
     id="g4"
     transform="translate(-18.062223,5.6444444)">
    <g
       id="g6">
      <g
         id="g8">
        <path
           style="fill:#b7b79d"
           d="m 55.8967,404.814 39.9685,0 0,7.386 -39.9685,0 0,-7.386 z"
           id="path10"
           inkscape:connector-curvature="0" />
        <path
           style="fill:none;fill-opacity:0;stroke:#b7b79d;stroke-width:0.02"
           d="m 55.8967,404.814 39.9685,0 0,7.386 -39.9685,0 0,-7.386"
           id="path12"
           inkscape:connector-curvature="0" />
      </g>
      <path
         style="fill:none;fill-opacity:0;stroke:#b7b79d;stroke-width:0.02"
         d="m 55.8967,404.814 39.9685,0 0,7.386 -39.9685,0 0,-7.386"
         id="path14"
         inkscape:connector-curvature="0" />
    </g>
    <path
       style="fill:none;fill-opacity:0;stroke:#494936;stroke-width:0.02"
       d="m 55.8967,404.814 39.9685,0 0,7.386 -39.9685,0 0,-7.386"
       id="path16"
       inkscape:connector-curvature="0" />
    <g
       id="g18">
      <g
         id="g20">
        <path
           style="fill:#c9c9b6"
           d="m 55.8967,404.814 4.2381,-4.018 39.9682,0 -4.2378,4.018 -39.9685,0 z"
           id="path22"
           inkscape:connector-curvature="0" />
        <path
           style="fill:none;fill-opacity:0;stroke:#c9c9b6;stroke-width:0.02"
           d="m 55.8967,404.814 4.2381,-4.018 39.9682,0 -4.2378,4.018 -39.9685,0"
           id="path24"
           inkscape:connector-curvature="0" />
      </g>
      <path
         style="fill:none;fill-opacity:0;stroke:#c9c9b6;stroke-width:0.02"
         d="m 55.8967,404.814 4.2381,-4.018 39.9682,0 -4.2378,4.018 -39.9685,0"
         id="path26"
         inkscape:connector-curvature="0" />
    </g>
    <path
       style="fill:none;fill-opacity:0;stroke:#494936;stroke-width:0.02"
       d="m 55.8967,404.814 4.2381,-4.018 39.9682,0 -4.2378,4.018 -39.9685,0"
       id="path28"
       inkscape:connector-curvature="0" />
    <path
       style="fill:none;fill-opacity:0;stroke:#000000;stroke-width:2.11999989"
       d="m 93.6297,408.176 -9.5907,0"
       id="path30"
       inkscape:connector-curvature="0" />
    <g
       id="g32">
      <g
         id="g34">
        <path
           style="fill:#7a7a5a"
           d="m 95.8652,412.2 4.2378,-4.25 0,-7.154 -4.2378,4.018 0,7.386 z"
           id="path36"
           inkscape:connector-curvature="0" />
        <path
           style="fill:none;fill-opacity:0;stroke:#7a7a5a;stroke-width:0.02"
           d="m 95.8652,412.2 4.2378,-4.25 0,-7.154 -4.2378,4.018 0,7.386"
           id="path38"
           inkscape:connector-curvature="0" />
      </g>
      <path
         style="fill:none;fill-opacity:0;stroke:#7a7a5a;stroke-width:0.02"
         d="m 95.8652,412.2 4.2378,-4.25 0,-7.154 -4.2378,4.018 0,7.386"
         id="path40"
         inkscape:connector-curvature="0" />
    </g>
    <path
       style="fill:none;fill-opacity:0;stroke:#494936;stroke-width:0.02"
       d="m 95.8652,412.2 4.2378,-4.25 0,-7.154 -4.2378,4.018 0,7.386"
       id="path42"
       inkscape:connector-curvature="0" />
    <g
       id="g44">
      <g
         id="g46">
        <path
           style="fill:#c9c9b6"
           d="m 56.1234,416.885 4.4585,-5.585 30.8186,0 -4.4584,5.585 -30.8187,0 z"
           id="path48"
           inkscape:connector-curvature="0" />
        <path
           style="fill:none;fill-opacity:0;stroke:#c9c9b6;stroke-width:0.02"
           d="m 56.1234,416.885 4.4585,-5.585 30.8186,0 -4.4584,5.585 -30.8187,0"
           id="path50"
           inkscape:connector-curvature="0" />
      </g>
      <path
         style="fill:none;fill-opacity:0;stroke:#c9c9b6;stroke-width:0.02"
         d="m 56.1234,416.885 4.4585,-5.585 30.8186,0 -4.4584,5.585 -30.8187,0"
         id="path52"
         inkscape:connector-curvature="0" />
    </g>
    <path
       style="fill:none;fill-opacity:0;stroke:#494936;stroke-width:0.02"
       d="m 56.1234,416.885 4.4585,-5.585 30.8186,0 -4.4584,5.585 -30.8187,0"
       id="path54"
       inkscape:connector-curvature="0" />
    <g
       id="g56">
      <g
         id="g58">
        <path
           style="fill:#7a7a5a"
           d="m 86.9421,418 4.4584,-4.685 0,-2.015 -4.4584,5.585 0,1.115 z"
           id="path60"
           inkscape:connector-curvature="0" />
        <path
           style="fill:none;fill-opacity:0;stroke:#7a7a5a;stroke-width:0.02"
           d="m 86.9421,418 4.4584,-4.685 0,-2.015 -4.4584,5.585 0,1.115"
           id="path62"
           inkscape:connector-curvature="0" />
      </g>
      <path
         style="fill:none;fill-opacity:0;stroke:#7a7a5a;stroke-width:0.02"
         d="m 86.9421,418 4.4584,-4.685 0,-2.015 -4.4584,5.585 0,1.115"
         id="path64"
         inkscape:connector-curvature="0" />
    </g>
    <path
       style="fill:none;fill-opacity:0;stroke:#494936;stroke-width:0.02"
       d="m 86.9421,418 4.4584,-4.685 0,-2.015 -4.4584,5.585 0,1.115"
       id="path66"
       inkscape:connector-curvature="0" />
    <g
       id="g68">
      <g
         id="g70">
        <path
           style="fill:#b7b79d"
           d="m 56.1234,416.885 30.8187,0 0,1.115 -30.8187,0 0,-1.115 z"
           id="path72"
           inkscape:connector-curvature="0" />
        <path
           style="fill:none;fill-opacity:0;stroke:#b7b79d;stroke-width:0.02"
           d="m 56.1234,416.885 30.8187,0 0,1.115 -30.8187,0 0,-1.115"
           id="path74"
           inkscape:connector-curvature="0" />
      </g>
      <path
         style="fill:none;fill-opacity:0;stroke:#b7b79d;stroke-width:0.02"
         d="m 56.1234,416.885 30.8187,0 0,1.115 -30.8187,0 0,-1.115"
         id="path76"
         inkscape:connector-curvature="0" />
    </g>
    <path
       style="fill:none;fill-opacity:0;stroke:#494936;stroke-width:0.02"
       d="m 56.1234,416.885 30.8187,0 0,1.115 -30.8187,0 0,-1.115"
       id="path78"
       inkscape:connector-curvature="0" />
    <g
       id="g80">
      <g
         id="g82">
        <path
           style="fill:#000000"
           d="m 61.9232,403.926 3.3564,-3.13 28.3501,0 -3.1171,3.13 -28.5894,0 z"
           id="path84"
           inkscape:connector-curvature="0" />
        <path
           style="fill:none;fill-opacity:0;stroke:#000000;stroke-width:0.02"
           d="m 61.9232,403.926 3.3564,-3.13 28.3501,0 -3.1171,3.13 -28.5894,0"
           id="path86"
           inkscape:connector-curvature="0" />
      </g>
      <path
         style="fill:none;fill-opacity:0;stroke:#000000;stroke-width:0.02"
         d="m 61.9232,403.926 3.3564,-3.13 28.3501,0 -3.1171,3.13 -28.5894,0"
         id="path88"
         inkscape:connector-curvature="0" />
    </g>
    <path
       style="fill:none;fill-opacity:0;stroke:#000000;stroke-width:0.02"
       d="m 61.9232,403.926 3.3564,-3.13 28.3501,0 -3.1171,3.13 -28.5894,0"
       id="path90"
       inkscape:connector-curvature="0" />
    <g
       id="g92">
      <g
         id="g94">
        <path
           style="fill:#c9c9b6"
           d="m 61.6965,380.903 3.136,-2.903 28.3627,0 -3.136,2.903 -28.3627,0 z"
           id="path96"
           inkscape:connector-curvature="0" />
        <path
           style="fill:none;fill-opacity:0;stroke:#c9c9b6;stroke-width:0.02"
           d="m 61.6965,380.903 3.136,-2.903 28.3627,0 -3.136,2.903 -28.3627,0"
           id="path98"
           inkscape:connector-curvature="0" />
      </g>
      <path
         style="fill:none;fill-opacity:0;stroke:#c9c9b6;stroke-width:0.02"
         d="m 61.6965,380.903 3.136,-2.903 28.3627,0 -3.136,2.903 -28.3627,0"
         id="path100"
         inkscape:connector-curvature="0" />
    </g>
    <path
       style="fill:none;fill-opacity:0;stroke:#494936;stroke-width:0.02"
       d="m 61.6965,380.903 3.136,-2.903 28.3627,0 -3.136,2.903 -28.3627,0"
       id="path102"
       inkscape:connector-curvature="0" />
    <g
       id="g104">
      <g
         id="g106">
        <path
           style="fill:#b7b79d"
           d="m 61.6965,380.903 28.5894,0 0,22.569 -28.5894,0 0,-22.569 z"
           id="path108"
           inkscape:connector-curvature="0" />
        <path
           style="fill:none;fill-opacity:0;stroke:#b7b79d;stroke-width:0.02"
           d="m 61.6965,380.903 28.5894,0 0,22.569 -28.5894,0 0,-22.569"
           id="path110"
           inkscape:connector-curvature="0" />
      </g>
      <path
         style="fill:none;fill-opacity:0;stroke:#b7b79d;stroke-width:0.02"
         d="m 61.6965,380.903 28.5894,0 0,22.569 -28.5894,0 0,-22.569"
         id="path112"
         inkscape:connector-curvature="0" />
    </g>
    <path
       style="fill:none;fill-opacity:0;stroke:#494936;stroke-width:0.02"
       d="m 61.6965,380.903 28.5768,0 0,22.563 -28.5768,0 0,-22.563"
       id="path114"
       inkscape:connector-curvature="0" />
    <g
       id="g116">
      <g
         id="g118">
        <path
           style="fill:#ffffff"
           d="m 64.1524,383.8 23.6713,0 0,17.437 -23.6713,0 0,-17.437 z"
           id="path120"
           inkscape:connector-curvature="0" />
        <path
           style="fill:none;fill-opacity:0;stroke:#ffffff;stroke-width:0.02"
           d="m 64.1524,383.8 23.6713,0 0,17.437 -23.6713,0 0,-17.437"
           id="path122"
           inkscape:connector-curvature="0" />
      </g>
      <path
         style="fill:none;fill-opacity:0;stroke:#ffffff;stroke-width:0.02"
         d="m 64.1524,383.8 23.6713,0 0,17.437 -23.6713,0 0,-17.437"
         id="path124"
         inkscape:connector-curvature="0" />
    </g>
    <path
       style="fill:none;fill-opacity:0;stroke:#494936;stroke-width:0.02"
       d="m 64.1524,383.8 23.6713,0 0,17.43 -23.6713,0 0,-17.43"
       id="path126"
       inkscape:connector-curvature="0" />
    <g
       id="g128">
      <g
         id="g130">
        <path
           style="fill:#7a7a5a"
           d="m 90.0592,403.258 3.136,-3.13 0,-22.128 -3.136,2.903 0,22.355 z"
           id="path132"
           inkscape:connector-curvature="0" />
        <path
           style="fill:none;fill-opacity:0;stroke:#7a7a5a;stroke-width:0.02"
           d="m 90.0592,403.258 3.136,-3.13 0,-22.128 -3.136,2.903 0,22.355"
           id="path134"
           inkscape:connector-curvature="0" />
      </g>
      <path
         style="fill:none;fill-opacity:0;stroke:#7a7a5a;stroke-width:0.02"
         d="m 90.0592,403.258 3.136,-3.13 0,-22.128 -3.136,2.903 0,22.355"
         id="path136"
         inkscape:connector-curvature="0" />
    </g>
    <path
       style="fill:none;fill-opacity:0;stroke:#494936;stroke-width:0.02"
       d="m 90.0592,403.258 3.136,-3.13 0,-22.128 -3.136,2.903 0,22.355"
       id="path138"
       inkscape:connector-curvature="0" />
  </g>
  <g
     id="g140"
     transform="translate(-18.062223,5.6444444)">
    <path
       style="fill:none;fill-opacity:0;stroke:#626248;stroke-width:0.80000001"
       d="m 258.072,410.823 0.217,-0.216 0.193,-0.229 0.176,-0.24 0.158,-0.234 0.141,-0.235 0.105,-0.246 0.1,-0.246 0.052,-0.252 0.047,-0.257 0.024,-0.241 -0.012,-0.252 -0.023,-0.251 -0.053,-0.246 -0.065,-0.258 -0.093,-0.246 -0.123,-0.24 -0.135,-0.241 -0.164,-0.234 -0.188,-0.228 -0.199,-0.229 -0.228,-0.211 -0.24,-0.217 -0.27,-0.21 -0.275,-0.194 -0.299,-0.193 -0.316,-0.176 -0.346,-0.176 -0.34,-0.175 -0.369,-0.153 -0.375,-0.14 -0.398,-0.135 -0.398,-0.123 -0.416,-0.111 -0.428,-0.1 -0.428,-0.094 -0.439,-0.07 -0.445,-0.064 -0.451,-0.065 -0.457,-0.035 -0.463,-0.029 -0.457,-0.018 -0.463,0 -0.463,0.006 -0.468,0.023 -0.457,0.041 -0.457,0.036 -0.44,0.064 -0.445,0.076 -0.439,0.082 -0.428,0.094 -0.416,0.105 -0.416,0.112 -0.392,0.14 -0.393,0.135 -0.369,0.146 -0.351,0.159 -0.352,0.175 -0.316,0.176 -0.316,0.182 -0.293,0.199 -0.27,0.199 -0.246,0.211 -0.234,0.217 -0.223,0.228 -0.199,0.229"
       id="path142"
       inkscape:connector-curvature="0" />
    <path
       style="fill:none;fill-opacity:0;stroke:#ecece7;stroke-width:0.04"
       d="m 258.013,410.589 0.2,-0.211 0.187,-0.228 0.158,-0.217 0.147,-0.234 0.111,-0.229 0.094,-0.24 0.076,-0.24 0.053,-0.246 0.023,-0.24 0.006,-0.247 -0.012,-0.234 -0.041,-0.246 -0.07,-0.234 -0.082,-0.246 -0.111,-0.229 -0.135,-0.234 -0.152,-0.229 -0.176,-0.222 -0.194,-0.217 -0.222,-0.217 -0.234,-0.205 -0.246,-0.205 -0.282,-0.193 -0.298,-0.182 -0.311,-0.181 -0.322,-0.17 -0.34,-0.158 -0.363,-0.153 -0.375,-0.134 -0.375,-0.135 -0.404,-0.117 -0.404,-0.112 -0.416,-0.105 -0.428,-0.082 -0.434,-0.076 -0.433,-0.071 -0.445,-0.046 -0.451,-0.036 -0.457,-0.029 -0.457,-0.017 -0.457,0 -0.451,0.005 -0.451,0.024 -0.457,0.041 -0.451,0.035 -0.451,0.064 -0.428,0.065 -0.434,0.076 -0.416,0.094 -0.421,0.105 -0.393,0.117 -0.398,0.123 -0.381,0.135 -0.357,0.147 -0.352,0.158 -0.334,0.158 -0.322,0.176 -0.305,0.181 -0.287,0.188 -0.269,0.205 -0.24,0.199 -0.223,0.211 -0.217,0.211 -0.181,0.217"
       id="path144"
       inkscape:connector-curvature="0" />
    <g
       id="g146">
      <g
         id="g148">
        <path
           style="fill:#c9c9b6"
           d="m 251.499,414.93 2.894,-3.802 5.132,0 -2.671,3.802 -5.355,0 z"
           id="path150"
           inkscape:connector-curvature="0" />
        <path
           style="fill:none;fill-opacity:0;stroke:#c9c9b6;stroke-width:0.02"
           d="m 251.499,414.93 2.894,-3.802 5.132,0 -2.671,3.802 -5.355,0"
           id="path152"
           inkscape:connector-curvature="0" />
      </g>
      <path
         style="fill:none;fill-opacity:0;stroke:#c9c9b6;stroke-width:0.02"
         d="m 251.499,414.93 2.894,-3.802 5.132,0 -2.671,3.802 -5.355,0"
         id="path154"
         inkscape:connector-curvature="0" />
    </g>
    <path
       style="fill:none;fill-opacity:0;stroke:#494936;stroke-width:0.02"
       d="m 251.499,414.93 2.894,-3.802 5.132,0 -2.671,3.802 -5.355,0"
       id="path156"
       inkscape:connector-curvature="0" />
    <g
       id="g158">
      <g
         id="g160">
        <path
           style="fill:#7a7a5a"
           d="m 256.854,416.5 2.671,-2.9 0,-2.472 -2.671,3.802 0,1.57 z"
           id="path162"
           inkscape:connector-curvature="0" />
        <path
           style="fill:none;fill-opacity:0;stroke:#7a7a5a;stroke-width:0.02"
           d="m 256.854,416.5 2.671,-2.9 0,-2.472 -2.671,3.802 0,1.57"
           id="path164"
           inkscape:connector-curvature="0" />
      </g>
      <path
         style="fill:none;fill-opacity:0;stroke:#7a7a5a;stroke-width:0.02"
         d="m 256.854,416.5 2.671,-2.9 0,-2.472 -2.671,3.802 0,1.57"
         id="path166"
         inkscape:connector-curvature="0" />
    </g>
    <path
       style="fill:none;fill-opacity:0;stroke:#494936;stroke-width:0.02"
       d="m 256.854,416.5 2.671,-2.9 0,-2.472 -2.671,3.802 0,1.57"
       id="path168"
       inkscape:connector-curvature="0" />
    <g
       id="g170">
      <g
         id="g172">
        <path
           style="fill:#b7b79d"
           d="m 251.499,414.93 5.355,0 0,1.342 -5.355,0 0,-1.342 z"
           id="path174"
           inkscape:connector-curvature="0" />
        <path
           style="fill:none;fill-opacity:0;stroke:#b7b79d;stroke-width:0.02"
           d="m 251.499,414.93 5.355,0 0,1.342 -5.355,0 0,-1.342"
           id="path176"
           inkscape:connector-curvature="0" />
      </g>
      <path
         style="fill:none;fill-opacity:0;stroke:#b7b79d;stroke-width:0.02"
         d="m 251.499,414.93 5.355,0 0,1.342 -5.355,0 0,-1.342"
         id="path178"
         inkscape:connector-curvature="0" />
    </g>
    <path
       style="fill:none;fill-opacity:0;stroke:#494936;stroke-width:0.02"
       d="m 251.499,414.93 5.355,0 0,1.342 -5.355,0 0,-1.342"
       id="path180"
       inkscape:connector-curvature="0" />
    <g
       id="g182">
      <g
         id="g184">
        <path
           style="fill:#a5a585"
           d="m 221.171,404.432 23.861,0 0,5.366 -23.861,0 0,-5.366 z"
           id="path186"
           inkscape:connector-curvature="0" />
        <path
           style="fill:none;fill-opacity:0;stroke:#a5a585;stroke-width:0.02"
           d="m 221.171,404.432 23.861,0 0,5.366 -23.861,0 0,-5.366"
           id="path188"
           inkscape:connector-curvature="0" />
      </g>
      <path
         style="fill:none;fill-opacity:0;stroke:#a5a585;stroke-width:0.02"
         d="m 221.171,404.432 23.861,0 0,5.366 -23.861,0 0,-5.366"
         id="path190"
         inkscape:connector-curvature="0" />
    </g>
    <path
       style="fill:none;fill-opacity:0;stroke:#494936;stroke-width:0.02"
       d="m 221.171,404.432 23.861,0 0,5.366 -23.861,0 0,-5.366"
       id="path192"
       inkscape:connector-curvature="0" />
    <g
       id="g194">
      <g
         id="g196">
        <path
           style="fill:#626248"
           d="m 244.803,409.798 4.458,-4.476 0.229,-3.573 -4.687,4.47 0,3.579 z"
           id="path198"
           inkscape:connector-curvature="0" />
        <path
           style="fill:none;fill-opacity:0;stroke:#626248;stroke-width:0.02"
           d="m 244.803,409.798 4.458,-4.476 0.229,-3.573 -4.687,4.47 0,3.579"
           id="path200"
           inkscape:connector-curvature="0" />
      </g>
      <path
         style="fill:none;fill-opacity:0;stroke:#626248;stroke-width:0.02"
         d="m 244.803,409.798 4.458,-4.476 0.229,-3.573 -4.687,4.47 0,3.579"
         id="path202"
         inkscape:connector-curvature="0" />
    </g>
    <path
       style="fill:none;fill-opacity:0;stroke:#494936;stroke-width:0.02"
       d="m 244.803,409.798 4.458,-4.476 0.229,-3.573 -4.687,4.47 0,3.579"
       id="path204"
       inkscape:connector-curvature="0" />
    <g
       id="g206">
      <g
         id="g208">
        <path
           style="fill:#c9c9b6"
           d="m 214.475,414.93 4.458,-5.583 30.774,0 -4.459,5.583 -30.773,0 z"
           id="path210"
           inkscape:connector-curvature="0" />
        <path
           style="fill:none;fill-opacity:0;stroke:#c9c9b6;stroke-width:0.02"
           d="m 214.475,414.93 4.458,-5.583 30.774,0 -4.459,5.583 -30.773,0"
           id="path212"
           inkscape:connector-curvature="0" />
      </g>
      <path
         style="fill:none;fill-opacity:0;stroke:#c9c9b6;stroke-width:0.02"
         d="m 214.475,414.93 4.458,-5.583 30.774,0 -4.459,5.583 -30.773,0"
         id="path214"
         inkscape:connector-curvature="0" />
    </g>
    <path
       style="fill:none;fill-opacity:0;stroke:#494936;stroke-width:0.02"
       d="m 214.475,414.93 4.458,-5.583 30.774,0 -4.459,5.583 -30.773,0"
       id="path216"
       inkscape:connector-curvature="0" />
    <g
       id="g218">
      <g
         id="g220">
        <path
           style="fill:#7a7a5a"
           d="m 245.248,416.272 4.459,-4.464 0,-2.461 -4.459,5.583 0,1.342 z"
           id="path222"
           inkscape:connector-curvature="0" />
        <path
           style="fill:none;fill-opacity:0;stroke:#7a7a5a;stroke-width:0.02"
           d="m 245.248,416.272 4.459,-4.464 0,-2.461 -4.459,5.583 0,1.342"
           id="path224"
           inkscape:connector-curvature="0" />
      </g>
      <path
         style="fill:none;fill-opacity:0;stroke:#7a7a5a;stroke-width:0.02"
         d="m 245.248,416.272 4.459,-4.464 0,-2.461 -4.459,5.583 0,1.342"
         id="path226"
         inkscape:connector-curvature="0" />
    </g>
    <path
       style="fill:none;fill-opacity:0;stroke:#494936;stroke-width:0.02"
       d="m 245.248,416.272 4.459,-4.464 0,-2.461 -4.459,5.583 0,1.342"
       id="path228"
       inkscape:connector-curvature="0" />
    <g
       id="g230">
      <g
         id="g232">
        <path
           style="fill:#b7b79d"
           d="m 214.475,414.93 30.773,0 0,1.342 -30.773,0 0,-1.342 z"
           id="path234"
           inkscape:connector-curvature="0" />
        <path
           style="fill:none;fill-opacity:0;stroke:#b7b79d;stroke-width:0.02"
           d="m 214.475,414.93 30.773,0 0,1.342 -30.773,0 0,-1.342"
           id="path236"
           inkscape:connector-curvature="0" />
      </g>
      <path
         style="fill:none;fill-opacity:0;stroke:#b7b79d;stroke-width:0.02"
         d="m 214.475,414.93 30.773,0 0,1.342 -30.773,0 0,-1.342"
         id="path238"
         inkscape:connector-curvature="0" />
    </g>
    <path
       style="fill:none;fill-opacity:0;stroke:#494936;stroke-width:0.02"
       d="m 214.475,414.93 30.773,0 0,1.342 -30.773,0 0,-1.342"
       id="path240"
       inkscape:connector-curvature="0" />
    <g
       id="g242">
      <g
         id="g244">
        <path
           style="fill:#7a7a5a"
           d="m 246.59,406.664 4.909,-5.132 0,-1.341 -4.909,5.131 0,1.342 z"
           id="path246"
           inkscape:connector-curvature="0" />
        <path
           style="fill:none;fill-opacity:0;stroke:#7a7a5a;stroke-width:0.02"
           d="m 246.59,406.664 4.909,-5.132 0,-1.341 -4.909,5.131 0,1.342"
           id="path248"
           inkscape:connector-curvature="0" />
      </g>
      <path
         style="fill:none;fill-opacity:0;stroke:#7a7a5a;stroke-width:0.02"
         d="m 246.59,406.664 4.909,-5.132 0,-1.341 -4.909,5.131 0,1.342"
         id="path250"
         inkscape:connector-curvature="0" />
    </g>
    <path
       style="fill:none;fill-opacity:0;stroke:#494936;stroke-width:0.02"
       d="m 246.59,406.664 4.909,-5.132 0,-1.341 -4.909,5.131 0,1.342"
       id="path252"
       inkscape:connector-curvature="0" />
    <g
       id="g254">
      <g
         id="g256">
        <path
           style="fill:#b7b79d"
           d="m 246.59,406.664 -28.108,0 0,-1.342 28.108,0 0,1.342 z"
           id="path258"
           inkscape:connector-curvature="0" />
        <path
           style="fill:none;fill-opacity:0;stroke:#b7b79d;stroke-width:0.02"
           d="m 246.59,406.664 -28.108,0 0,-1.342 28.108,0 0,1.342"
           id="path260"
           inkscape:connector-curvature="0" />
      </g>
      <path
         style="fill:none;fill-opacity:0;stroke:#b7b79d;stroke-width:0.02"
         d="m 246.59,406.664 -28.108,0 0,-1.342 28.108,0 0,1.342"
         id="path262"
         inkscape:connector-curvature="0" />
    </g>
    <path
       style="fill:none;fill-opacity:0;stroke:#494936;stroke-width:0.02"
       d="m 246.59,406.664 -28.108,0 0,-1.342 28.108,0 0,1.342"
       id="path264"
       inkscape:connector-curvature="0" />
    <g
       id="g266">
      <g
         id="g268">
        <path
           style="fill:#b7b79d"
           d="m 251.499,400.191 -28.108,0 -4.909,5.131 28.108,0 4.909,-5.131 z"
           id="path270"
           inkscape:connector-curvature="0" />
        <path
           style="fill:none;fill-opacity:0;stroke:#b7b79d;stroke-width:0.02"
           d="m 251.499,400.191 -28.108,0 -4.909,5.131 28.108,0 4.909,-5.131"
           id="path272"
           inkscape:connector-curvature="0" />
      </g>
      <path
         style="fill:none;fill-opacity:0;stroke:#b7b79d;stroke-width:0.02"
         d="m 251.499,400.191 -28.108,0 -4.909,5.131 28.108,0 4.909,-5.131"
         id="path274"
         inkscape:connector-curvature="0" />
    </g>
    <path
       style="fill:none;fill-opacity:0;stroke:#494936;stroke-width:0.02"
       d="m 251.499,400.191 -28.108,0 -4.909,5.131 28.108,0 4.909,-5.131"
       id="path276"
       inkscape:connector-curvature="0" />
    <g
       id="g278">
      <g
         id="g280">
        <path
           style="fill:#7a7a5a"
           d="m 222.056,401.749 23.872,0 0.885,1.113 -23.873,0 -0.884,-1.113 z"
           id="path282"
           inkscape:connector-curvature="0" />
        <path
           style="fill:none;fill-opacity:0;stroke:#7a7a5a;stroke-width:0.02"
           d="m 222.056,401.749 23.872,0 0.885,1.113 -23.873,0 -0.884,-1.113"
           id="path284"
           inkscape:connector-curvature="0" />
      </g>
      <path
         style="fill:none;fill-opacity:0;stroke:#7a7a5a;stroke-width:0.02"
         d="m 222.056,401.749 23.872,0 0.885,1.113 -23.873,0 -0.884,-1.113"
         id="path286"
         inkscape:connector-curvature="0" />
    </g>
    <path
       style="fill:none;fill-opacity:0;stroke:#494936;stroke-width:0.02"
       d="m 222.056,401.749 23.872,0 0.885,1.113 -23.873,0 -0.884,-1.113"
       id="path288"
       inkscape:connector-curvature="0" />
    <g
       id="g290">
      <g
         id="g292">
        <path
           style="fill:#626248"
           d="m 248.593,398.849 -2.665,2.9 0.885,1.113 2.677,-2.671 -0.897,-1.342 z"
           id="path294"
           inkscape:connector-curvature="0" />
        <path
           style="fill:none;fill-opacity:0;stroke:#626248;stroke-width:0.02"
           d="m 248.593,398.849 -2.665,2.9 0.885,1.113 2.677,-2.671 -0.897,-1.342"
           id="path296"
           inkscape:connector-curvature="0" />
      </g>
      <path
         style="fill:none;fill-opacity:0;stroke:#626248;stroke-width:0.02"
         d="m 248.593,398.849 -2.665,2.9 0.885,1.113 2.677,-2.671 -0.897,-1.342"
         id="path298"
         inkscape:connector-curvature="0" />
    </g>
    <path
       style="fill:none;fill-opacity:0;stroke:#494936;stroke-width:0.02"
       d="m 248.593,398.849 -2.665,2.9 0.885,1.113 2.677,-2.671 -0.897,-1.342"
       id="path300"
       inkscape:connector-curvature="0" />
    <g
       id="g302">
      <g
         id="g304">
        <path
           style="fill:#c9c9b6"
           d="m 220.046,379.412 3.123,-2.912 28.33,0 -3.122,2.912 -28.331,0 z"
           id="path306"
           inkscape:connector-curvature="0" />
        <path
           style="fill:none;fill-opacity:0;stroke:#c9c9b6;stroke-width:0.02"
           d="m 220.046,379.412 3.123,-2.912 28.33,0 -3.122,2.912 -28.331,0"
           id="path308"
           inkscape:connector-curvature="0" />
      </g>
      <path
         style="fill:none;fill-opacity:0;stroke:#c9c9b6;stroke-width:0.02"
         d="m 220.046,379.412 3.123,-2.912 28.33,0 -3.122,2.912 -28.331,0"
         id="path310"
         inkscape:connector-curvature="0" />
    </g>
    <path
       style="fill:none;fill-opacity:0;stroke:#494936;stroke-width:0.02"
       d="m 220.046,379.412 3.123,-2.912 28.33,0 -3.122,2.912 -28.331,0"
       id="path312"
       inkscape:connector-curvature="0" />
    <g
       id="g314">
      <g
         id="g316">
        <path
           style="fill:#b7b79d"
           d="m 220.046,379.412 28.547,0 0,22.565 -28.547,0 0,-22.565 z"
           id="path318"
           inkscape:connector-curvature="0" />
        <path
           style="fill:none;fill-opacity:0;stroke:#b7b79d;stroke-width:0.02"
           d="m 220.046,379.412 28.547,0 0,22.565 -28.547,0 0,-22.565"
           id="path320"
           inkscape:connector-curvature="0" />
      </g>
      <path
         style="fill:none;fill-opacity:0;stroke:#b7b79d;stroke-width:0.02"
         d="m 220.046,379.412 28.547,0 0,22.565 -28.547,0 0,-22.565"
         id="path322"
         inkscape:connector-curvature="0" />
    </g>
    <path
       style="fill:none;fill-opacity:0;stroke:#494936;stroke-width:0.02"
       d="m 220.046,379.412 28.542,0 0,22.56 -28.542,0 0,-22.56"
       id="path324"
       inkscape:connector-curvature="0" />
    <g
       id="g326">
      <g
         id="g328">
        <path
           style="fill:#ffffff"
           d="m 222.495,382.311 23.644,0 0,17.429 -23.644,0 0,-17.429 z"
           id="path330"
           inkscape:connector-curvature="0" />
        <path
           style="fill:none;fill-opacity:0;stroke:#ffffff;stroke-width:0.02"
           d="m 222.495,382.311 23.644,0 0,17.429 -23.644,0 0,-17.429"
           id="path332"
           inkscape:connector-curvature="0" />
      </g>
      <path
         style="fill:none;fill-opacity:0;stroke:#ffffff;stroke-width:0.02"
         d="m 222.495,382.311 23.644,0 0,17.429 -23.644,0 0,-17.429"
         id="path334"
         inkscape:connector-curvature="0" />
    </g>
    <path
       style="fill:none;fill-opacity:0;stroke:#494936;stroke-width:0.02"
       d="m 222.495,382.311 23.638,0 0,17.423 -23.638,0 0,-17.423"
       id="path336"
       inkscape:connector-curvature="0" />
    <g
       id="g338">
      <g
         id="g340">
        <path
           style="fill:#7a7a5a"
           d="m 248.377,401.749 3.122,-3.122 0,-22.127 -3.122,2.912 0,22.337 z"
           id="path342"
           inkscape:connector-curvature="0" />
        <path
           style="fill:none;fill-opacity:0;stroke:#7a7a5a;stroke-width:0.02"
           d="m 248.377,401.749 3.122,-3.122 0,-22.127 -3.122,2.912 0,22.337"
           id="path344"
           inkscape:connector-curvature="0" />
      </g>
      <path
         style="fill:none;fill-opacity:0;stroke:#7a7a5a;stroke-width:0.02"
         d="m 248.377,401.749 3.122,-3.122 0,-22.127 -3.122,2.912 0,22.337"
         id="path346"
         inkscape:connector-curvature="0" />
    </g>
    <path
       style="fill:none;fill-opacity:0;stroke:#494936;stroke-width:0.02"
       d="m 248.377,401.749 3.122,-3.122 0,-22.127 -3.122,2.912 0,22.337"
       id="path348"
       inkscape:connector-curvature="0" />
  </g>
  <text
     font-size="12.7998"
     style="font-style:normal;font-variant:normal;font-weight:normal;font-stretch:normal;font-size:12.79948425px;line-height:125%;font-family:sans-serif;-inkscape-font-specification:'sans-serif, Normal';text-align:center;writing-mode:lr-tb;text-anchor:middle;fill:#000000"
     x="60.937759"
     y="438.14429"
     id="text350"
     sodipodi:linespacing="125%">
    <tspan
       sodipodi:role="line"
       id="tspan3515"
       x="60.937759"
       y="438.14429">Win7</tspan>
    <tspan
       sodipodi:role="line"
       id="tspan3517"
       x="60.937759"
       y="454.14365">10.0.2.a</tspan>
  </text>
  <text
     font-size="12.7998"
     style="font-style:normal;font-variant:normal;font-weight:normal;font-stretch:normal;font-size:12.79948425px;line-height:125%;font-family:sans-serif;-inkscape-font-specification:'sans-serif, Normal';text-align:center;writing-mode:lr-tb;text-anchor:middle;fill:#000000"
     x="216.88774"
     y="438.8443"
     id="text356"
     sodipodi:linespacing="125%">
    <tspan
       sodipodi:role="line"
       id="tspan3519"
       x="216.88774"
       y="438.8443">Linux</tspan>
    <tspan
       sodipodi:role="line"
       id="tspan3521"
       x="216.88774"
       y="454.84366">10.0.2.b</tspan>
  </text>
  <g
     id="g21569"
     transform="translate(0,-5.6444444)">
    <line
       style="fill:none;fill-opacity:0;stroke:#000000;stroke-width:2"
       x1="49.037777"
       y1="360.53888"
       x2="233.03778"
       y2="360.53888"
       id="line364" />
    <line
       style="fill:none;fill-opacity:0;stroke:#000000;stroke-width:2"
       x1="75.132973"
       y1="360.53888"
       x2="75.132973"
       y2="389.28888"
       id="line366" />
    <line
       style="fill:none;fill-opacity:0;stroke:#000000;stroke-width:2"
       x1="205.10678"
       y1="360.53888"
       x2="205.10678"
       y2="387.78888"
       id="line368" />
    <line
       style="fill:none;fill-opacity:0;stroke:#000000;stroke-width:2"
       x1="138.9632"
       y1="332.11322"
       x2="138.9632"
       y2="359.36322"
       id="line368-6" />
  </g>
  <g
     transform="matrix(0.70555556,0,0,-0.70555556,125.53554,330.88709)"
     id="g10">
    <g
       transform="scale(0.1,0.1)"
       id="g12">
      <g
         id="g14">
        <g
           clip-path="url(#clipPath18)"
           id="g16">
          <path
             inkscape:connector-curvature="0"
             id="path22-3"
             style="fill:#026c9b;fill-opacity:1;fill-rule:nonzero;stroke:none"
             d="m 369.855,178.281 c 0,-39.504 -82.343,-71.523 -183.925,-71.523 C 84.3477,106.758 2,138.777 2,178.281 L 2,73.5156 c 0,-39.5 82.3477,-71.52341 183.93,-71.52341 101.582,0 183.925,32.02341 183.925,71.52341 l 0,104.7654" />
          <path
             inkscape:connector-curvature="0"
             id="path24-6"
             style="fill:none;stroke:#ffffff;stroke-width:4;stroke-linecap:butt;stroke-linejoin:miter;stroke-miterlimit:4;stroke-dasharray:none;stroke-opacity:1"
             d="m 369.855,178.281 c 0,-39.504 -82.343,-71.523 -183.925,-71.523 C 84.3477,106.758 2,138.777 2,178.281 L 2,73.5156 c 0,-39.5 82.3477,-71.52341 183.93,-71.52341 101.582,0 183.925,32.02341 183.925,71.52341 l 0,104.7654 z" />
          <path
             inkscape:connector-curvature="0"
             id="path26-7"
             style="fill:#026c9b;fill-opacity:1;fill-rule:nonzero;stroke:none"
             d="m 185.93,106.758 c 101.582,0 183.925,32.019 183.925,71.523 0,39.512 -82.343,71.524 -183.925,71.524 C 84.3477,249.805 2,217.793 2,178.281 2,138.777 84.3477,106.758 185.93,106.758" />
          <path
             inkscape:connector-curvature="0"
             id="path28-5"
             style="fill:none;stroke:#ffffff;stroke-width:4;stroke-linecap:butt;stroke-linejoin:miter;stroke-miterlimit:4;stroke-dasharray:none;stroke-opacity:1"
             d="m 185.93,106.758 c 101.582,0 183.925,32.019 183.925,71.523 0,39.512 -82.343,71.524 -183.925,71.524 C 84.3477,249.805 2,217.793 2,178.281 2,138.777 84.3477,106.758 185.93,106.758 Z" />
          <path
             inkscape:connector-curvature="0"
             id="path30-3"
             style="fill:#ffffff;fill-opacity:1;fill-rule:nonzero;stroke:none"
             d="m 143.926,206.25 15.183,-22.781 -57.421,-13.274 12.55,10.45 -88.7497,15.168 22.2656,16.687 85.6371,-14.5 10.535,8.25" />
          <path
             inkscape:connector-curvature="0"
             id="path32"
             style="fill:#ffffff;fill-opacity:1;fill-rule:nonzero;stroke:none"
             d="m 224.727,151.008 -10.364,23.484 51.797,10.352 -8.98,-8.047 86.328,-14.746 -20.715,-16.571 -85.813,16.114 -12.253,-10.586" />
          <path
             inkscape:connector-curvature="0"
             id="path34"
             style="fill:#ffffff;fill-opacity:1;fill-rule:nonzero;stroke:none"
             d="m 196.406,218.691 58.02,15.879 0.679,-24.863 -14.5,2.766 -28.308,-23.489 -27.024,3.946 29.231,22.968 -18.098,2.793" />
          <path
             inkscape:connector-curvature="0"
             id="path36-5"
             style="fill:#ffffff;fill-opacity:1;fill-rule:nonzero;stroke:none"
             d="m 171.543,129.59 -55.242,-10.352 -2.071,25.547 15.875,-3.445 30.415,25.965 26.914,-4.551 -32.461,-28.32 16.57,-4.844" />
        </g>
      </g>
    </g>
  </g>
  <text
     font-size="12.7998"
     style="font-style:normal;font-variant:normal;font-weight:normal;font-stretch:normal;font-size:12.7994833px;line-height:125%;font-family:sans-serif;-inkscape-font-specification:'sans-serif, Normal';text-align:center;writing-mode:lr-tb;text-anchor:middle;fill:#000000"
     x="196.24989"
     y="315.97678"
     id="text356-2"
     sodipodi:linespacing="125%">
    <tspan
       sodipodi:role="line"
       id="tspan21596"
       x="196.24989"
       y="315.97678">VirtualBox</tspan>
    <tspan
       sodipodi:role="line"
       id="tspan21598"
       x="196.24989"
       y="331.97614">NATNetwork</tspan>
    <tspan
       sodipodi:role="line"
       x="196.24989"
       y="347.97549"
       id="tspan3533">10.0.2.2</tspan>
  </text>
</svg>
