<?xml version="1.0" encoding="UTF-8" standalone="no"?>
<!DOCTYPE svg PUBLIC "-//W3C//DTD SVG 1.0//EN" "http://www.w3.org/TR/2001/PR-SVG-20010719/DTD/svg10.dtd">
<svg width="13cm" height="8cm" viewBox="14 311 260 142" xmlns="http://www.w3.org/2000/svg" xmlns:xlink="http://www.w3.org/1999/xlink">
  <g>
    <g>
      <g>
        <path style="fill: #b7b79d" d="M 55.8967 404.814 L 95.8652,404.814 L 95.8652,412.2 L 55.8967,412.2 L 55.8967,404.814z"/>
        <path style="fill: none; fill-opacity:0; stroke-width: 0.02; stroke: #b7b79d" d="M 55.8967 404.814 L 95.8652,404.814 L 95.8652,412.2 L 55.8967,412.2 L 55.8967,404.814"/>
      </g>
      <path style="fill: none; fill-opacity:0; stroke-width: 0.02; stroke: #b7b79d" d="M 55.8967 404.814 L 95.8652,404.814 L 95.8652,412.2 L 55.8967,412.2 L 55.8967,404.814"/>
    </g>
    <path style="fill: none; fill-opacity:0; stroke-width: 0.02; stroke: #494936" d="M 55.8967 404.814 L 95.8652,404.814 L 95.8652,412.2 L 55.8967,412.2 L 55.8967,404.814"/>
    <g>
      <g>
        <path style="fill: #c9c9b6" d="M 55.8967 404.814 L 60.1348,400.796 L 100.103,400.796 L 95.8652,404.814 L 55.8967,404.814z"/>
        <path style="fill: none; fill-opacity:0; stroke-width: 0.02; stroke: #c9c9b6" d="M 55.8967 404.814 L 60.1348,400.796 L 100.103,400.796 L 95.8652,404.814 L 55.8967,404.814"/>
      </g>
      <path style="fill: none; fill-opacity:0; stroke-width: 0.02; stroke: #c9c9b6" d="M 55.8967 404.814 L 60.1348,400.796 L 100.103,400.796 L 95.8652,404.814 L 55.8967,404.814"/>
    </g>
    <path style="fill: none; fill-opacity:0; stroke-width: 0.02; stroke: #494936" d="M 55.8967 404.814 L 60.1348,400.796 L 100.103,400.796 L 95.8652,404.814 L 55.8967,404.814"/>
    <path style="fill: none; fill-opacity:0; stroke-width: 2.12; stroke: #000000" d="M 93.6297 408.176 L 84.039,408.176"/>
    <g>
      <g>
        <path style="fill: #7a7a5a" d="M 95.8652 412.2 L 100.103,407.95 L 100.103,400.796 L 95.8652,404.814 L 95.8652,412.2z"/>
        <path style="fill: none; fill-opacity:0; stroke-width: 0.02; stroke: #7a7a5a" d="M 95.8652 412.2 L 100.103,407.95 L 100.103,400.796 L 95.8652,404.814 L 95.8652,412.2"/>
      </g>
      <path style="fill: none; fill-opacity:0; stroke-width: 0.02; stroke: #7a7a5a" d="M 95.8652 412.2 L 100.103,407.95 L 100.103,400.796 L 95.8652,404.814 L 95.8652,412.2"/>
    </g>
    <path style="fill: none; fill-opacity:0; stroke-width: 0.02; stroke: #494936" d="M 95.8652 412.2 L 100.103,407.95 L 100.103,400.796 L 95.8652,404.814 L 95.8652,412.2"/>
    <g>
      <g>
        <path style="fill: #c9c9b6" d="M 56.1234 416.885 L 60.5819,411.3 L 91.4005,411.3 L 86.9421,416.885 L 56.1234,416.885z"/>
        <path style="fill: none; fill-opacity:0; stroke-width: 0.02; stroke: #c9c9b6" d="M 56.1234 416.885 L 60.5819,411.3 L 91.4005,411.3 L 86.9421,416.885 L 56.1234,416.885"/>
      </g>
      <path style="fill: none; fill-opacity:0; stroke-width: 0.02; stroke: #c9c9b6" d="M 56.1234 416.885 L 60.5819,411.3 L 91.4005,411.3 L 86.9421,416.885 L 56.1234,416.885"/>
    </g>
    <path style="fill: none; fill-opacity:0; stroke-width: 0.02; stroke: #494936" d="M 56.1234 416.885 L 60.5819,411.3 L 91.4005,411.3 L 86.9421,416.885 L 56.1234,416.885"/>
    <g>
      <g>
        <path style="fill: #7a7a5a" d="M 86.9421 418 L 91.4005,413.315 L 91.4005,411.3 L 86.9421,416.885 L 86.9421,418z"/>
        <path style="fill: none; fill-opacity:0; stroke-width: 0.02; stroke: #7a7a5a" d="M 86.9421 418 L 91.4005,413.315 L 91.4005,411.3 L 86.9421,416.885 L 86.9421,418"/>
      </g>
      <path style="fill: none; fill-opacity:0; stroke-width: 0.02; stroke: #7a7a5a" d="M 86.9421 418 L 91.4005,413.315 L 91.4005,411.3 L 86.9421,416.885 L 86.9421,418"/>
    </g>
    <path style="fill: none; fill-opacity:0; stroke-width: 0.02; stroke: #494936" d="M 86.9421 418 L 91.4005,413.315 L 91.4005,411.3 L 86.9421,416.885 L 86.9421,418"/>
    <g>
      <g>
        <path style="fill: #b7b79d" d="M 56.1234 416.885 L 86.9421,416.885 L 86.9421,418 L 56.1234,418 L 56.1234,416.885z"/>
        <path style="fill: none; fill-opacity:0; stroke-width: 0.02; stroke: #b7b79d" d="M 56.1234 416.885 L 86.9421,416.885 L 86.9421,418 L 56.1234,418 L 56.1234,416.885"/>
      </g>
      <path style="fill: none; fill-opacity:0; stroke-width: 0.02; stroke: #b7b79d" d="M 56.1234 416.885 L 86.9421,416.885 L 86.9421,418 L 56.1234,418 L 56.1234,416.885"/>
    </g>
    <path style="fill: none; fill-opacity:0; stroke-width: 0.02; stroke: #494936" d="M 56.1234 416.885 L 86.9421,416.885 L 86.9421,418 L 56.1234,418 L 56.1234,416.885"/>
    <g>
      <g>
        <path style="fill: #000000" d="M 61.9232 403.926 L 65.2796,400.796 L 93.6297,400.796 L 90.5126,403.926 L 61.9232,403.926z"/>
        <path style="fill: none; fill-opacity:0; stroke-width: 0.02; stroke: #000000" d="M 61.9232 403.926 L 65.2796,400.796 L 93.6297,400.796 L 90.5126,403.926 L 61.9232,403.926"/>
      </g>
      <path style="fill: none; fill-opacity:0; stroke-width: 0.02; stroke: #000000" d="M 61.9232 403.926 L 65.2796,400.796 L 93.6297,400.796 L 90.5126,403.926 L 61.9232,403.926"/>
    </g>
    <path style="fill: none; fill-opacity:0; stroke-width: 0.02; stroke: #000000" d="M 61.9232 403.926 L 65.2796,400.796 L 93.6297,400.796 L 90.5126,403.926 L 61.9232,403.926"/>
    <g>
      <g>
        <path style="fill: #c9c9b6" d="M 61.6965 380.903 L 64.8325,378 L 93.1952,378 L 90.0592,380.903 L 61.6965,380.903z"/>
        <path style="fill: none; fill-opacity:0; stroke-width: 0.02; stroke: #c9c9b6" d="M 61.6965 380.903 L 64.8325,378 L 93.1952,378 L 90.0592,380.903 L 61.6965,380.903"/>
      </g>
      <path style="fill: none; fill-opacity:0; stroke-width: 0.02; stroke: #c9c9b6" d="M 61.6965 380.903 L 64.8325,378 L 93.1952,378 L 90.0592,380.903 L 61.6965,380.903"/>
    </g>
    <path style="fill: none; fill-opacity:0; stroke-width: 0.02; stroke: #494936" d="M 61.6965 380.903 L 64.8325,378 L 93.1952,378 L 90.0592,380.903 L 61.6965,380.903"/>
    <g>
      <g>
        <path style="fill: #b7b79d" d="M 61.6965 380.903 L 90.2859,380.903 L 90.2859,403.472 L 61.6965,403.472 L 61.6965,380.903z"/>
        <path style="fill: none; fill-opacity:0; stroke-width: 0.02; stroke: #b7b79d" d="M 61.6965 380.903 L 90.2859,380.903 L 90.2859,403.472 L 61.6965,403.472 L 61.6965,380.903"/>
      </g>
      <path style="fill: none; fill-opacity:0; stroke-width: 0.02; stroke: #b7b79d" d="M 61.6965 380.903 L 90.2859,380.903 L 90.2859,403.472 L 61.6965,403.472 L 61.6965,380.903"/>
    </g>
    <path style="fill: none; fill-opacity:0; stroke-width: 0.02; stroke: #494936" d="M 61.6965 380.903 L 90.2733,380.903 L 90.2733,403.466 L 61.6965,403.466 L 61.6965,380.903"/>
    <g>
      <g>
        <path style="fill: #ffffff" d="M 64.1524 383.8 L 87.8237,383.8 L 87.8237,401.237 L 64.1524,401.237 L 64.1524,383.8z"/>
        <path style="fill: none; fill-opacity:0; stroke-width: 0.02; stroke: #ffffff" d="M 64.1524 383.8 L 87.8237,383.8 L 87.8237,401.237 L 64.1524,401.237 L 64.1524,383.8"/>
      </g>
      <path style="fill: none; fill-opacity:0; stroke-width: 0.02; stroke: #ffffff" d="M 64.1524 383.8 L 87.8237,383.8 L 87.8237,401.237 L 64.1524,401.237 L 64.1524,383.8"/>
    </g>
    <path style="fill: none; fill-opacity:0; stroke-width: 0.02; stroke: #494936" d="M 64.1524 383.8 L 87.8237,383.8 L 87.8237,401.23 L 64.1524,401.23 L 64.1524,383.8"/>
    <g>
      <g>
        <path style="fill: #7a7a5a" d="M 90.0592 403.258 L 93.1952,400.128 L 93.1952,378 L 90.0592,380.903 L 90.0592,403.258z"/>
        <path style="fill: none; fill-opacity:0; stroke-width: 0.02; stroke: #7a7a5a" d="M 90.0592 403.258 L 93.1952,400.128 L 93.1952,378 L 90.0592,380.903 L 90.0592,403.258"/>
      </g>
      <path style="fill: none; fill-opacity:0; stroke-width: 0.02; stroke: #7a7a5a" d="M 90.0592 403.258 L 93.1952,400.128 L 93.1952,378 L 90.0592,380.903 L 90.0592,403.258"/>
    </g>
    <path style="fill: none; fill-opacity:0; stroke-width: 0.02; stroke: #494936" d="M 90.0592 403.258 L 93.1952,400.128 L 93.1952,378 L 90.0592,380.903 L 90.0592,403.258"/>
  </g>
  <g>
    <path style="fill: none; fill-opacity:0; stroke-width: 0.8; stroke: #626248" d="M 258.072 410.823 L 258.289,410.607 L 258.482,410.378 L 258.658,410.138 L 258.816,409.904 L 258.957,409.669 L 259.062,409.423 L 259.162,409.177 L 259.214,408.925 L 259.261,408.668 L 259.285,408.427 L 259.273,408.175 L 259.25,407.924 L 259.197,407.678 L 259.132,407.42 L 259.039,407.174 L 258.916,406.934 L 258.781,406.693 L 258.617,406.459 L 258.429,406.231 L 258.23,406.002 L 258.002,405.791 L 257.762,405.574 L 257.492,405.364 L 257.217,405.17 L 256.918,404.977 L 256.602,404.801 L 256.256,404.625 L 255.916,404.45 L 255.547,404.297 L 255.172,404.157 L 254.774,404.022 L 254.376,403.899 L 253.96,403.788 L 253.532,403.688 L 253.104,403.594 L 252.665,403.524 L 252.22,403.46 L 251.769,403.395 L 251.312,403.36 L 250.849,403.331 L 250.392,403.313 L 249.929,403.313 L 249.466,403.319 L 248.998,403.342 L 248.541,403.383 L 248.084,403.419 L 247.644,403.483 L 247.199,403.559 L 246.76,403.641 L 246.332,403.735 L 245.916,403.84 L 245.5,403.952 L 245.108,404.092 L 244.715,404.227 L 244.346,404.373 L 243.995,404.532 L 243.643,404.707 L 243.327,404.883 L 243.011,405.065 L 242.718,405.264 L 242.448,405.463 L 242.202,405.674 L 241.968,405.891 L 241.745,406.119 L 241.546,406.348"/>
    <path style="fill: none; fill-opacity:0; stroke-width: 0.04; stroke: #ecece7" d="M 258.013 410.589 L 258.213,410.378 L 258.4,410.15 L 258.558,409.933 L 258.705,409.699 L 258.816,409.47 L 258.91,409.23 L 258.986,408.99 L 259.039,408.744 L 259.062,408.504 L 259.068,408.257 L 259.056,408.023 L 259.015,407.777 L 258.945,407.543 L 258.863,407.297 L 258.752,407.068 L 258.617,406.834 L 258.465,406.605 L 258.289,406.383 L 258.095,406.166 L 257.873,405.949 L 257.639,405.744 L 257.393,405.539 L 257.111,405.346 L 256.813,405.164 L 256.502,404.983 L 256.18,404.813 L 255.84,404.655 L 255.477,404.502 L 255.102,404.368 L 254.727,404.233 L 254.323,404.116 L 253.919,404.004 L 253.503,403.899 L 253.075,403.817 L 252.641,403.741 L 252.208,403.67 L 251.763,403.624 L 251.312,403.588 L 250.855,403.559 L 250.398,403.542 L 249.941,403.542 L 249.49,403.547 L 249.039,403.571 L 248.582,403.612 L 248.131,403.647 L 247.68,403.711 L 247.252,403.776 L 246.818,403.852 L 246.402,403.946 L 245.981,404.051 L 245.588,404.168 L 245.19,404.291 L 244.809,404.426 L 244.452,404.573 L 244.1,404.731 L 243.766,404.889 L 243.444,405.065 L 243.139,405.246 L 242.852,405.434 L 242.583,405.639 L 242.343,405.838 L 242.12,406.049 L 241.903,406.26 L 241.722,406.477"/>
    <g>
      <g>
        <path style="fill: #c9c9b6" d="M 251.499 414.93 L 254.393,411.128 L 259.525,411.128 L 256.854,414.93 L 251.499,414.93z"/>
        <path style="fill: none; fill-opacity:0; stroke-width: 0.02; stroke: #c9c9b6" d="M 251.499 414.93 L 254.393,411.128 L 259.525,411.128 L 256.854,414.93 L 251.499,414.93"/>
      </g>
      <path style="fill: none; fill-opacity:0; stroke-width: 0.02; stroke: #c9c9b6" d="M 251.499 414.93 L 254.393,411.128 L 259.525,411.128 L 256.854,414.93 L 251.499,414.93"/>
    </g>
    <path style="fill: none; fill-opacity:0; stroke-width: 0.02; stroke: #494936" d="M 251.499 414.93 L 254.393,411.128 L 259.525,411.128 L 256.854,414.93 L 251.499,414.93"/>
    <g>
      <g>
        <path style="fill: #7a7a5a" d="M 256.854 416.5 L 259.525,413.6 L 259.525,411.128 L 256.854,414.93 L 256.854,416.5z"/>
        <path style="fill: none; fill-opacity:0; stroke-width: 0.02; stroke: #7a7a5a" d="M 256.854 416.5 L 259.525,413.6 L 259.525,411.128 L 256.854,414.93 L 256.854,416.5"/>
      </g>
      <path style="fill: none; fill-opacity:0; stroke-width: 0.02; stroke: #7a7a5a" d="M 256.854 416.5 L 259.525,413.6 L 259.525,411.128 L 256.854,414.93 L 256.854,416.5"/>
    </g>
    <path style="fill: none; fill-opacity:0; stroke-width: 0.02; stroke: #494936" d="M 256.854 416.5 L 259.525,413.6 L 259.525,411.128 L 256.854,414.93 L 256.854,416.5"/>
    <g>
      <g>
        <path style="fill: #b7b79d" d="M 251.499 414.93 L 256.854,414.93 L 256.854,416.272 L 251.499,416.272 L 251.499,414.93z"/>
        <path style="fill: none; fill-opacity:0; stroke-width: 0.02; stroke: #b7b79d" d="M 251.499 414.93 L 256.854,414.93 L 256.854,416.272 L 251.499,416.272 L 251.499,414.93"/>
      </g>
      <path style="fill: none; fill-opacity:0; stroke-width: 0.02; stroke: #b7b79d" d="M 251.499 414.93 L 256.854,414.93 L 256.854,416.272 L 251.499,416.272 L 251.499,414.93"/>
    </g>
    <path style="fill: none; fill-opacity:0; stroke-width: 0.02; stroke: #494936" d="M 251.499 414.93 L 256.854,414.93 L 256.854,416.272 L 251.499,416.272 L 251.499,414.93"/>
    <g>
      <g>
        <path style="fill: #a5a585" d="M 221.171 404.432 L 245.032,404.432 L 245.032,409.798 L 221.171,409.798 L 221.171,404.432z"/>
        <path style="fill: none; fill-opacity:0; stroke-width: 0.02; stroke: #a5a585" d="M 221.171 404.432 L 245.032,404.432 L 245.032,409.798 L 221.171,409.798 L 221.171,404.432"/>
      </g>
      <path style="fill: none; fill-opacity:0; stroke-width: 0.02; stroke: #a5a585" d="M 221.171 404.432 L 245.032,404.432 L 245.032,409.798 L 221.171,409.798 L 221.171,404.432"/>
    </g>
    <path style="fill: none; fill-opacity:0; stroke-width: 0.02; stroke: #494936" d="M 221.171 404.432 L 245.032,404.432 L 245.032,409.798 L 221.171,409.798 L 221.171,404.432"/>
    <g>
      <g>
        <path style="fill: #626248" d="M 244.803 409.798 L 249.261,405.322 L 249.49,401.749 L 244.803,406.219 L 244.803,409.798z"/>
        <path style="fill: none; fill-opacity:0; stroke-width: 0.02; stroke: #626248" d="M 244.803 409.798 L 249.261,405.322 L 249.49,401.749 L 244.803,406.219 L 244.803,409.798"/>
      </g>
      <path style="fill: none; fill-opacity:0; stroke-width: 0.02; stroke: #626248" d="M 244.803 409.798 L 249.261,405.322 L 249.49,401.749 L 244.803,406.219 L 244.803,409.798"/>
    </g>
    <path style="fill: none; fill-opacity:0; stroke-width: 0.02; stroke: #494936" d="M 244.803 409.798 L 249.261,405.322 L 249.49,401.749 L 244.803,406.219 L 244.803,409.798"/>
    <g>
      <g>
        <path style="fill: #c9c9b6" d="M 214.475 414.93 L 218.933,409.347 L 249.707,409.347 L 245.248,414.93 L 214.475,414.93z"/>
        <path style="fill: none; fill-opacity:0; stroke-width: 0.02; stroke: #c9c9b6" d="M 214.475 414.93 L 218.933,409.347 L 249.707,409.347 L 245.248,414.93 L 214.475,414.93"/>
      </g>
      <path style="fill: none; fill-opacity:0; stroke-width: 0.02; stroke: #c9c9b6" d="M 214.475 414.93 L 218.933,409.347 L 249.707,409.347 L 245.248,414.93 L 214.475,414.93"/>
    </g>
    <path style="fill: none; fill-opacity:0; stroke-width: 0.02; stroke: #494936" d="M 214.475 414.93 L 218.933,409.347 L 249.707,409.347 L 245.248,414.93 L 214.475,414.93"/>
    <g>
      <g>
        <path style="fill: #7a7a5a" d="M 245.248 416.272 L 249.707,411.808 L 249.707,409.347 L 245.248,414.93 L 245.248,416.272z"/>
        <path style="fill: none; fill-opacity:0; stroke-width: 0.02; stroke: #7a7a5a" d="M 245.248 416.272 L 249.707,411.808 L 249.707,409.347 L 245.248,414.93 L 245.248,416.272"/>
      </g>
      <path style="fill: none; fill-opacity:0; stroke-width: 0.02; stroke: #7a7a5a" d="M 245.248 416.272 L 249.707,411.808 L 249.707,409.347 L 245.248,414.93 L 245.248,416.272"/>
    </g>
    <path style="fill: none; fill-opacity:0; stroke-width: 0.02; stroke: #494936" d="M 245.248 416.272 L 249.707,411.808 L 249.707,409.347 L 245.248,414.93 L 245.248,416.272"/>
    <g>
      <g>
        <path style="fill: #b7b79d" d="M 214.475 414.93 L 245.248,414.93 L 245.248,416.272 L 214.475,416.272 L 214.475,414.93z"/>
        <path style="fill: none; fill-opacity:0; stroke-width: 0.02; stroke: #b7b79d" d="M 214.475 414.93 L 245.248,414.93 L 245.248,416.272 L 214.475,416.272 L 214.475,414.93"/>
      </g>
      <path style="fill: none; fill-opacity:0; stroke-width: 0.02; stroke: #b7b79d" d="M 214.475 414.93 L 245.248,414.93 L 245.248,416.272 L 214.475,416.272 L 214.475,414.93"/>
    </g>
    <path style="fill: none; fill-opacity:0; stroke-width: 0.02; stroke: #494936" d="M 214.475 414.93 L 245.248,414.93 L 245.248,416.272 L 214.475,416.272 L 214.475,414.93"/>
    <g>
      <g>
        <path style="fill: #7a7a5a" d="M 246.59 406.664 L 251.499,401.532 L 251.499,400.191 L 246.59,405.322 L 246.59,406.664z"/>
        <path style="fill: none; fill-opacity:0; stroke-width: 0.02; stroke: #7a7a5a" d="M 246.59 406.664 L 251.499,401.532 L 251.499,400.191 L 246.59,405.322 L 246.59,406.664"/>
      </g>
      <path style="fill: none; fill-opacity:0; stroke-width: 0.02; stroke: #7a7a5a" d="M 246.59 406.664 L 251.499,401.532 L 251.499,400.191 L 246.59,405.322 L 246.59,406.664"/>
    </g>
    <path style="fill: none; fill-opacity:0; stroke-width: 0.02; stroke: #494936" d="M 246.59 406.664 L 251.499,401.532 L 251.499,400.191 L 246.59,405.322 L 246.59,406.664"/>
    <g>
      <g>
        <path style="fill: #b7b79d" d="M 246.59 406.664 L 218.482,406.664 L 218.482,405.322 L 246.59,405.322 L 246.59,406.664z"/>
        <path style="fill: none; fill-opacity:0; stroke-width: 0.02; stroke: #b7b79d" d="M 246.59 406.664 L 218.482,406.664 L 218.482,405.322 L 246.59,405.322 L 246.59,406.664"/>
      </g>
      <path style="fill: none; fill-opacity:0; stroke-width: 0.02; stroke: #b7b79d" d="M 246.59 406.664 L 218.482,406.664 L 218.482,405.322 L 246.59,405.322 L 246.59,406.664"/>
    </g>
    <path style="fill: none; fill-opacity:0; stroke-width: 0.02; stroke: #494936" d="M 246.59 406.664 L 218.482,406.664 L 218.482,405.322 L 246.59,405.322 L 246.59,406.664"/>
    <g>
      <g>
        <path style="fill: #b7b79d" d="M 251.499 400.191 L 223.391,400.191 L 218.482,405.322 L 246.59,405.322 L 251.499,400.191z"/>
        <path style="fill: none; fill-opacity:0; stroke-width: 0.02; stroke: #b7b79d" d="M 251.499 400.191 L 223.391,400.191 L 218.482,405.322 L 246.59,405.322 L 251.499,400.191"/>
      </g>
      <path style="fill: none; fill-opacity:0; stroke-width: 0.02; stroke: #b7b79d" d="M 251.499 400.191 L 223.391,400.191 L 218.482,405.322 L 246.59,405.322 L 251.499,400.191"/>
    </g>
    <path style="fill: none; fill-opacity:0; stroke-width: 0.02; stroke: #494936" d="M 251.499 400.191 L 223.391,400.191 L 218.482,405.322 L 246.59,405.322 L 251.499,400.191"/>
    <g>
      <g>
        <path style="fill: #7a7a5a" d="M 222.056 401.749 L 245.928,401.749 L 246.813,402.862 L 222.94,402.862 L 222.056,401.749z"/>
        <path style="fill: none; fill-opacity:0; stroke-width: 0.02; stroke: #7a7a5a" d="M 222.056 401.749 L 245.928,401.749 L 246.813,402.862 L 222.94,402.862 L 222.056,401.749"/>
      </g>
      <path style="fill: none; fill-opacity:0; stroke-width: 0.02; stroke: #7a7a5a" d="M 222.056 401.749 L 245.928,401.749 L 246.813,402.862 L 222.94,402.862 L 222.056,401.749"/>
    </g>
    <path style="fill: none; fill-opacity:0; stroke-width: 0.02; stroke: #494936" d="M 222.056 401.749 L 245.928,401.749 L 246.813,402.862 L 222.94,402.862 L 222.056,401.749"/>
    <g>
      <g>
        <path style="fill: #626248" d="M 248.593 398.849 L 245.928,401.749 L 246.813,402.862 L 249.49,400.191 L 248.593,398.849z"/>
        <path style="fill: none; fill-opacity:0; stroke-width: 0.02; stroke: #626248" d="M 248.593 398.849 L 245.928,401.749 L 246.813,402.862 L 249.49,400.191 L 248.593,398.849"/>
      </g>
      <path style="fill: none; fill-opacity:0; stroke-width: 0.02; stroke: #626248" d="M 248.593 398.849 L 245.928,401.749 L 246.813,402.862 L 249.49,400.191 L 248.593,398.849"/>
    </g>
    <path style="fill: none; fill-opacity:0; stroke-width: 0.02; stroke: #494936" d="M 248.593 398.849 L 245.928,401.749 L 246.813,402.862 L 249.49,400.191 L 248.593,398.849"/>
    <g>
      <g>
        <path style="fill: #c9c9b6" d="M 220.046 379.412 L 223.169,376.5 L 251.499,376.5 L 248.377,379.412 L 220.046,379.412z"/>
        <path style="fill: none; fill-opacity:0; stroke-width: 0.02; stroke: #c9c9b6" d="M 220.046 379.412 L 223.169,376.5 L 251.499,376.5 L 248.377,379.412 L 220.046,379.412"/>
      </g>
      <path style="fill: none; fill-opacity:0; stroke-width: 0.02; stroke: #c9c9b6" d="M 220.046 379.412 L 223.169,376.5 L 251.499,376.5 L 248.377,379.412 L 220.046,379.412"/>
    </g>
    <path style="fill: none; fill-opacity:0; stroke-width: 0.02; stroke: #494936" d="M 220.046 379.412 L 223.169,376.5 L 251.499,376.5 L 248.377,379.412 L 220.046,379.412"/>
    <g>
      <g>
        <path style="fill: #b7b79d" d="M 220.046 379.412 L 248.593,379.412 L 248.593,401.977 L 220.046,401.977 L 220.046,379.412z"/>
        <path style="fill: none; fill-opacity:0; stroke-width: 0.02; stroke: #b7b79d" d="M 220.046 379.412 L 248.593,379.412 L 248.593,401.977 L 220.046,401.977 L 220.046,379.412"/>
      </g>
      <path style="fill: none; fill-opacity:0; stroke-width: 0.02; stroke: #b7b79d" d="M 220.046 379.412 L 248.593,379.412 L 248.593,401.977 L 220.046,401.977 L 220.046,379.412"/>
    </g>
    <path style="fill: none; fill-opacity:0; stroke-width: 0.02; stroke: #494936" d="M 220.046 379.412 L 248.588,379.412 L 248.588,401.972 L 220.046,401.972 L 220.046,379.412"/>
    <g>
      <g>
        <path style="fill: #ffffff" d="M 222.495 382.311 L 246.139,382.311 L 246.139,399.74 L 222.495,399.74 L 222.495,382.311z"/>
        <path style="fill: none; fill-opacity:0; stroke-width: 0.02; stroke: #ffffff" d="M 222.495 382.311 L 246.139,382.311 L 246.139,399.74 L 222.495,399.74 L 222.495,382.311"/>
      </g>
      <path style="fill: none; fill-opacity:0; stroke-width: 0.02; stroke: #ffffff" d="M 222.495 382.311 L 246.139,382.311 L 246.139,399.74 L 222.495,399.74 L 222.495,382.311"/>
    </g>
    <path style="fill: none; fill-opacity:0; stroke-width: 0.02; stroke: #494936" d="M 222.495 382.311 L 246.133,382.311 L 246.133,399.734 L 222.495,399.734 L 222.495,382.311"/>
    <g>
      <g>
        <path style="fill: #7a7a5a" d="M 248.377 401.749 L 251.499,398.627 L 251.499,376.5 L 248.377,379.412 L 248.377,401.749z"/>
        <path style="fill: none; fill-opacity:0; stroke-width: 0.02; stroke: #7a7a5a" d="M 248.377 401.749 L 251.499,398.627 L 251.499,376.5 L 248.377,379.412 L 248.377,401.749"/>
      </g>
      <path style="fill: none; fill-opacity:0; stroke-width: 0.02; stroke: #7a7a5a" d="M 248.377 401.749 L 251.499,398.627 L 251.499,376.5 L 248.377,379.412 L 248.377,401.749"/>
    </g>
    <path style="fill: none; fill-opacity:0; stroke-width: 0.02; stroke: #494936" d="M 248.377 401.749 L 251.499,398.627 L 251.499,376.5 L 248.377,379.412 L 248.377,401.749"/>
  </g>
  <text font-size="12.7998" style="fill: #000000;text-anchor:middle;font-family:sans-serif;font-style:normal;font-weight:normal" x="79" y="432.5">
    <tspan x="79" y="432.5">Win7</tspan>
    <tspan x="79" y="448.5">192.168.x.2</tspan>
  </text>
  <text font-size="12.7998" style="fill: #000000;text-anchor:middle;font-family:sans-serif;font-style:normal;font-weight:normal" x="234.95" y="433.2">
    <tspan x="234.95" y="433.2">Linux</tspan>
    <tspan x="234.95" y="449.2">192.168.x.3</tspan>
  </text>
  <g>
    <line style="fill: none; fill-opacity:0; stroke-width: 2; stroke: #000000" x1="67.1" y1="349.25" x2="251.1" y2="349.25"/>
    <line style="fill: none; fill-opacity:0; stroke-width: 2; stroke: #000000" x1="93.1952" y1="349.25" x2="93.1952" y2="378"/>
    <line style="fill: none; fill-opacity:0; stroke-width: 2; stroke: #000000" x1="223.169" y1="349.25" x2="223.169" y2="376.5"/>
  </g>
  <text font-size="12.8" style="fill: #000000;text-anchor:start;font-family:sans-serif;font-style:italic;font-weight:normal" x="14" y="323">
    <tspan x="14" y="323">Internal</tspan>
    <tspan x="14" y="339">network</tspan>
    <tspan x="14" y="355">'intnet'</tspan>
  </text>
</svg>
